<svg id="Layer_1" data-name="Layer 1" xmlns="http://www.w3.org/2000/svg" viewBox="0 0 533.61 154.14"><defs><style>.cls-1{font-size:45.89px;}.cls-1,.cls-2,.cls-3{fill:#ebe7e2;}.cls-1,.cls-2{font-family:BodoniSvtyTwoITCTT-Book, "Bodoni 72";}.cls-2{font-size:137.5px;}</style></defs><text class="cls-1" transform="translate(113 82.66)">I</text><text class="cls-1" transform="translate(183.73 82.66)">V</text><text class="cls-1" transform="translate(269.81 82.66)">I</text><text class="cls-1" transform="translate(340.59 82.66)">T</text><text class="cls-1" transform="translate(417.02 82.66)">O</text><text class="cls-1" transform="translate(495.47 82.66)">N</text><text class="cls-2" transform="translate(0 117.01)">L</text><path class="cls-3" d="M466.13,333.79a3.37,3.37,0,1,1,3.5-3.37A3.29,3.29,0,0,1,466.13,333.79Zm3.52-7.75v1.77A4.15,4.15,0,0,0,466,326a4.46,4.46,0,1,0,0,8.92,4.15,4.15,0,0,0,3.59-1.78v1.17c0,2.28-1.07,3.34-3.4,3.34a5.44,5.44,0,0,1-3.62-1.26l-.63.95a6.42,6.42,0,0,0,4.29,1.42c3,0,4.6-1.44,4.6-4.61V326ZM455.12,326a3.88,3.88,0,0,0-3.5,1.77V326h-1.19v9.2h1.25v-4.82a3,3,0,0,1,3.22-3.33c1.75,0,2.76,1,2.76,2.94v5.21h1.24v-5.33C458.9,327.27,457.36,326,455.12,326Zm-11.9,8.26a3.59,3.59,0,1,1,3.42-3.59A3.37,3.37,0,0,1,443.22,334.23Zm2.84-7.37a1.94,1.94,0,0,0,1.68-2,2.76,2.76,0,0,0-.47-1.47l-.81.31a2.15,2.15,0,0,1,.35,1.12c0,.65-.44,1.23-1.42,1.23s-1.22-.11-2.17-.11a4.55,4.55,0,1,0,2.84.89Zm-8.35-2a2.54,2.54,0,0,0-.45-1.47l-.83.32a1.94,1.94,0,0,1,.35,1.12,1.07,1.07,0,0,1-1.15,1.17H435v4.83c0,2.1-1.21,3.34-3.13,3.34-1.75,0-2.77-1-2.77-3V326h-1.24v5.34c0,2.64,1.54,3.95,3.89,3.95a3.64,3.64,0,0,0,3.3-1.77v1.68h1.19v-8.31A1.88,1.88,0,0,0,437.71,324.9ZM420.77,326a3.89,3.89,0,0,0-3.45,1.68v-5.39h-1.24v13h1.24v-4.82a3,3,0,0,1,3.22-3.33c1.75,0,2.77,1,2.77,2.94v5.21h1.24v-5.33C424.55,327.27,423,326,420.77,326Zm-6.38-1.73a10.38,10.38,0,0,0-10.24,0l.47,1a9.09,9.09,0,0,1,4-1.2v11.19h1.29V324.05a9.34,9.34,0,0,1,4,1.2Z" transform="translate(-119.8 -218.23)"/><path class="cls-3" d="M515.46,326v4.83c0,2.1-1.21,3.34-3.13,3.34-1.75,0-2.77-1-2.77-3V326h-1.24v5.34c0,2.64,1.54,3.95,3.89,3.95a3.64,3.64,0,0,0,3.3-1.77v1.68h1.19V326Zm-14.1,11a.76.76,0,1,0,0,1.51.76.76,0,0,0,0-1.51Zm.1-10a3.12,3.12,0,0,1,3.17,2.64l-6.49,1.26a2.3,2.3,0,0,1,0-.38A3.28,3.28,0,0,1,501.46,327Zm.32,7.19a3.42,3.42,0,0,1-3.47-2.4l7.56-1.47a4.33,4.33,0,0,0-4.41-4.39,4.44,4.44,0,0,0-4.55,4.67,4.58,4.58,0,0,0,4.85,4.69,4.48,4.48,0,0,0,3.53-1.5l-.7-.81A3.56,3.56,0,0,1,501.78,334.23Zm-.42-11.06,1.73,1.45h1.15L502,322.45h-1.26l-2.26,2.17h1.15Zm-8.23,12.07h1.24V326h-1.24Zm.63-11.21a.89.89,0,1,0-.91-.89A.89.89,0,0,0,493.76,324Zm-5.63-1v5.46h-7.67V323h-1.29v12.24h1.29v-5.65h7.67v5.65h1.28V323Z" transform="translate(-119.8 -218.23)"/><path class="cls-3" d="M552.58,334.23a3.59,3.59,0,1,1,3.41-3.59A3.37,3.37,0,0,1,552.58,334.23ZM556,326v1.75a4,4,0,0,0-3.5-1.82,4.68,4.68,0,0,0,0,9.36,4,4,0,0,0,3.56-1.91v1.82h1.19V326Zm-11.88,0v4.83c0,2.1-1.21,3.34-3.13,3.34-1.75,0-2.77-1-2.77-3V326H537v5.34c0,2.64,1.54,3.95,3.89,3.95a3.64,3.64,0,0,0,3.3-1.77v1.68h1.19V326ZM541,322.1a.89.89,0,0,1,1,.86c0,.53-.33.93-1,1.24l.44.55a2,2,0,0,0,1.4-1.88,1.5,1.5,0,0,0-1.66-1.5,2.55,2.55,0,0,0-1.46.45l.3.62A1.84,1.84,0,0,1,541,322.1Zm-10.66,13.25a5.94,5.94,0,0,0,4.5-1.8l-.82-.83a4.78,4.78,0,0,1-3.62,1.47,5.07,5.07,0,1,1,0-10.14A4.83,4.83,0,0,1,534,325.5l.82-.82a5.92,5.92,0,0,0-4.48-1.79,6.23,6.23,0,1,0,0,12.46Z" transform="translate(-119.8 -218.23)"/><path class="cls-3" d="M580.14,337.06a.76.76,0,1,0,.75.76A.74.74,0,0,0,580.14,337.06Zm5.67-12.16a2.54,2.54,0,0,0-.46-1.47l-.82.32a1.94,1.94,0,0,1,.35,1.12,1.07,1.07,0,0,1-1.15,1.17h-.65v4.83c0,2.1-1.21,3.34-3.13,3.34-1.75,0-2.77-1-2.77-3V326h-1.24v5.34c0,2.64,1.54,3.95,3.88,3.95a3.67,3.67,0,0,0,3.31-1.77v1.68h1.19v-8.31A1.88,1.88,0,0,0,585.81,324.9ZM568.9,335.35c3.14,0,4.57-1.54,4.57-3.34,0-4.46-7.54-2.43-7.54-5.79,0-1.23,1-2.23,3.24-2.23a6.35,6.35,0,0,1,3.36,1l.43-1a6.84,6.84,0,0,0-3.79-1.09c-3.12,0-4.52,1.56-4.52,3.36,0,4.53,7.54,2.47,7.54,5.83,0,1.2-1,2.17-3.29,2.17a6,6,0,0,1-4-1.49l-.5,1A6.65,6.65,0,0,0,568.9,335.35Z" transform="translate(-119.8 -218.23)"/><path class="cls-3" d="M623.73,326a3.89,3.89,0,0,0-3.45,1.68v-5.39H619v13h1.24v-4.82a3,3,0,0,1,3.22-3.33c1.75,0,2.77,1,2.77,2.94v5.21h1.24v-5.33C627.51,327.27,626,326,623.73,326Zm-11.85,0a3.88,3.88,0,0,0-3.5,1.77V326h-1.19v9.2h1.25v-4.82a3,3,0,0,1,3.22-3.33c1.75,0,2.76,1,2.76,2.94v5.21h1.24v-5.33C615.66,327.27,614.12,326,611.88,326Zm-9.39,9.27h1.24V326h-1.24Zm.63-11.21a.89.89,0,1,0-.91-.89A.89.89,0,0,0,603.12,324Zm-2.16.21a10.37,10.37,0,0,0-10.23,0l.47,1a9,9,0,0,1,4-1.2v11.19h1.29V324.05a9.38,9.38,0,0,1,4,1.2Z" transform="translate(-119.8 -218.23)"/><path class="cls-3" d="M645,330.56A3.28,3.28,0,0,1,648.3,327a3.13,3.13,0,0,1,3.17,2.64l-6.5,1.26C645,330.82,645,330.7,645,330.56ZM648.3,326a4.44,4.44,0,0,0-4.55,4.67,4.58,4.58,0,0,0,4.85,4.69,4.48,4.48,0,0,0,3.53-1.5l-.7-.81a3.56,3.56,0,0,1-2.82,1.21,3.4,3.4,0,0,1-3.46-2.4l7.56-1.47A4.33,4.33,0,0,0,648.3,326Zm-.11-2.38,1.7,1h1.19L648.81,323h-1.23l-2.27,1.64h1.19Zm5.22-2.34H651.9l-2.11,1.9h1.1Zm-9.47,3a10.37,10.37,0,0,0-10.23,0l.47,1a9,9,0,0,1,4-1.2v11.19h1.29V324.05a9.38,9.38,0,0,1,4,1.2Z" transform="translate(-119.8 -218.23)"/></svg>