<svg id="Layer_1" data-name="Layer 1" xmlns="http://www.w3.org/2000/svg" viewBox="0 0 520 150.21"><defs><style>.cls-1{font-size:44.72px;}.cls-1,.cls-2,.cls-3{fill:#15284e;}.cls-1,.cls-2{font-family:BodoniSvtyTwoITCTT-Book, "Bodoni 72";}.cls-2{font-size:133.99px;}</style></defs><text class="cls-1" transform="translate(110.12 80.55)">I</text><text class="cls-1" transform="translate(179.04 80.55)">V</text><text class="cls-1" transform="translate(262.93 80.55)">I</text><text class="cls-1" transform="translate(331.9 80.55)">T</text><text class="cls-1" transform="translate(406.38 80.55)">O</text><text class="cls-1" transform="translate(468.89 81.13)">N</text><text class="cls-2" transform="translate(0 114.03)">L</text><path class="cls-3" d="M379.5,491.67a3.29,3.29,0,1,1,3.41-3.29A3.2,3.2,0,0,1,379.5,491.67Zm3.43-7.56v1.73a4,4,0,0,0-3.55-1.79,4.35,4.35,0,1,0,0,8.69,4,4,0,0,0,3.5-1.74v1.15c0,2.21-1,3.25-3.31,3.25a5.32,5.32,0,0,1-3.53-1.23l-.62.93a6.29,6.29,0,0,0,4.18,1.38c3,0,4.49-1.4,4.49-4.49v-7.88Zm-14.16-.06a3.77,3.77,0,0,0-3.41,1.72v-1.66H364.2v9h1.21v-4.7a2.94,2.94,0,0,1,3.14-3.24c1.71,0,2.7,1,2.7,2.86v5.08h1.21v-5.2C372.46,485.31,371,484.05,368.77,484.05Zm-11.59,8a3.5,3.5,0,1,1,3.32-3.49A3.28,3.28,0,0,1,357.18,492.09Zm2.76-7.17a1.92,1.92,0,0,0,1.64-1.93,2.73,2.73,0,0,0-.46-1.43l-.79.3a2.07,2.07,0,0,1,.34,1.09c0,.63-.42,1.2-1.38,1.2s-1.19-.1-2.11-.1a4.43,4.43,0,1,0,2.76.87ZM351.81,483a2.51,2.51,0,0,0-.45-1.44l-.8.31a1.91,1.91,0,0,1,.34,1.09,1,1,0,0,1-1.12,1.14h-.64v4.71c0,2.05-1.17,3.26-3.05,3.26-1.7,0-2.69-1-2.69-2.88v-5.09h-1.21v5.2c0,2.58,1.5,3.86,3.78,3.86a3.57,3.57,0,0,0,3.23-1.72v1.63h1.16V485A1.83,1.83,0,0,0,351.81,483Zm-16.51,1a3.78,3.78,0,0,0-3.36,1.63v-5.25h-1.21v12.65h1.21v-4.7a2.94,2.94,0,0,1,3.14-3.24c1.7,0,2.69,1,2.69,2.86v5.08H339v-5.2C339,485.31,337.48,484.05,335.3,484.05Zm-6.23-1.69a10.07,10.07,0,0,0-10,0l.46,1a8.74,8.74,0,0,1,3.9-1.18v10.91h1.26V482.17a9.07,9.07,0,0,1,3.89,1.18Z" transform="translate(-42 -379.06)"/><path class="cls-3" d="M427.57,484.11v4.71a2.92,2.92,0,0,1-3.05,3.26c-1.71,0-2.7-1-2.7-2.88v-5.09h-1.21v5.2c0,2.58,1.5,3.86,3.79,3.86a3.57,3.57,0,0,0,3.22-1.72v1.63h1.16v-9Zm-13.74,10.75a.73.73,0,1,0,0,1.46.73.73,0,0,0,0-1.46Zm.1-9.77a3,3,0,0,1,3.09,2.57l-6.33,1.23a2.3,2.3,0,0,1,0-.38A3.19,3.19,0,0,1,413.93,485.09Zm.31,7a3.31,3.31,0,0,1-3.38-2.33l7.37-1.43a4.23,4.23,0,0,0-4.3-4.28,4.32,4.32,0,0,0-4.43,4.55,4.45,4.45,0,0,0,4.72,4.57,4.36,4.36,0,0,0,3.44-1.47l-.68-.78A3.49,3.49,0,0,1,414.24,492.09Zm-.41-10.77,1.68,1.41h1.13l-2.2-2.11h-1.23l-2.2,2.11h1.13Zm-8,11.76H407v-9h-1.21Zm.62-10.93a.86.86,0,1,0,0-1.72.86.86,0,1,0,0,1.72Zm-5.5-1v5.32h-7.46v-5.32H392.2v11.93h1.27v-5.5h7.46v5.5h1.25V481.15Z" transform="translate(-42 -379.06)"/><path class="cls-3" d="M463.74,492.09a3.5,3.5,0,1,1,3.33-3.49A3.28,3.28,0,0,1,463.74,492.09Zm3.31-8v1.71a3.92,3.92,0,0,0-3.41-1.77,4.56,4.56,0,0,0,0,9.12,3.89,3.89,0,0,0,3.46-1.86v1.77h1.16v-9Zm-11.58,0v4.71a2.92,2.92,0,0,1-3.05,3.26c-1.71,0-2.7-1-2.7-2.88v-5.09h-1.21v5.2c0,2.58,1.5,3.86,3.79,3.86a3.57,3.57,0,0,0,3.22-1.72v1.63h1.16v-9Zm-3-3.83a.86.86,0,0,1,.94.83c0,.51-.33.91-1,1.21l.43.53a2,2,0,0,0,1.36-1.82,1.46,1.46,0,0,0-1.62-1.47,2.38,2.38,0,0,0-1.41.44l.29.6A1.8,1.8,0,0,1,452.47,480.28Zm-10.39,12.91a5.82,5.82,0,0,0,4.39-1.76l-.81-.8a4.69,4.69,0,0,1-3.53,1.43,4.95,4.95,0,1,1,0-9.89,4.75,4.75,0,0,1,3.53,1.41l.81-.8A5.79,5.79,0,0,0,442.1,481a6.08,6.08,0,1,0,0,12.15Z" transform="translate(-42 -379.06)"/><path class="cls-3" d="M490.6,494.86a.73.73,0,1,0,.73.73A.71.71,0,0,0,490.6,494.86ZM496.12,483a2.51,2.51,0,0,0-.44-1.44l-.8.31a1.91,1.91,0,0,1,.34,1.09,1,1,0,0,1-1.12,1.14h-.64v4.71c0,2.05-1.17,3.26-3,3.26-1.7,0-2.69-1-2.69-2.88v-5.09h-1.21v5.2c0,2.58,1.5,3.86,3.78,3.86a3.59,3.59,0,0,0,3.23-1.72v1.63h1.15V485A1.82,1.82,0,0,0,496.12,483Zm-16.47,10.18c3.05,0,4.45-1.5,4.45-3.26,0-4.35-7.35-2.37-7.35-5.65,0-1.19,1-2.16,3.16-2.16a6.1,6.1,0,0,1,3.27,1l.43-1a6.81,6.81,0,0,0-3.7-1.06c-3,0-4.4,1.52-4.4,3.28,0,4.42,7.35,2.4,7.35,5.68,0,1.17-1,2.11-3.21,2.11a5.84,5.84,0,0,1-3.94-1.45l-.49,1A6.46,6.46,0,0,0,479.65,493.19Z" transform="translate(-42 -379.06)"/><path class="cls-3" d="M533.08,484.05a3.78,3.78,0,0,0-3.36,1.63v-5.25h-1.21v12.65h1.21v-4.7a2.94,2.94,0,0,1,3.14-3.24c1.7,0,2.69,1,2.69,2.86v5.08h1.21v-5.2C536.76,485.31,535.26,484.05,533.08,484.05Zm-11.55,0a3.77,3.77,0,0,0-3.41,1.72v-1.66H517v9h1.21v-4.7a2.94,2.94,0,0,1,3.14-3.24c1.71,0,2.7,1,2.7,2.86v5.08h1.21v-5.2C525.22,485.31,523.72,484.05,521.53,484.05Zm-9.15,9h1.21v-9h-1.21Zm.61-10.93a.86.86,0,1,0-.89-.87A.88.88,0,0,0,513,482.15Zm-2.1.21a10.07,10.07,0,0,0-10,0l.46,1a8.71,8.71,0,0,1,3.9-1.18v10.91h1.26V482.17a9.07,9.07,0,0,1,3.89,1.18Z" transform="translate(-42 -379.06)"/><path class="cls-3" d="M553.76,488.51a3.19,3.19,0,0,1,3.26-3.42,3,3,0,0,1,3.09,2.57l-6.33,1.23A2.3,2.3,0,0,1,553.76,488.51Zm3.26-4.46a4.33,4.33,0,0,0-4.43,4.55,4.45,4.45,0,0,0,4.72,4.57,4.38,4.38,0,0,0,3.45-1.47l-.69-.78a3.47,3.47,0,0,1-2.74,1.17,3.32,3.32,0,0,1-3.38-2.33l7.37-1.43A4.22,4.22,0,0,0,557,484.05Zm-.1-2.32,1.65,1h1.16l-2.21-1.6h-1.2l-2.22,1.6h1.16Zm5.08-2.29h-1.47l-2.06,1.86h1.07Zm-9.23,2.92a10.07,10.07,0,0,0-10,0l.46,1a8.74,8.74,0,0,1,3.9-1.18v10.91h1.27V482.17a9.07,9.07,0,0,1,3.88,1.18Z" transform="translate(-42 -379.06)"/></svg>